<?xml version="1.0" standalone="no"?>
<!DOCTYPE svg PUBLIC "-//W3C//DTD SVG 20010904//EN"
 "http://www.w3.org/TR/2001/REC-SVG-20010904/DTD/svg10.dtd">
<svg version="1.0" xmlns="http://www.w3.org/2000/svg"
 width="700.000000pt" height="700.000000pt" viewBox="0 0 700.000000 700.000000"
 preserveAspectRatio="xMidYMid meet">
<metadata>
Created by potrace 1.11, written by Peter Selinger 2001-2013
</metadata>
<g transform="translate(0.000000,700.000000) scale(0.100000,-0.100000)"
fill="#000000" stroke="none">
<path d="M2780 4992 l0 -88 63 -31 c57 -29 136 -55 245 -83 l42 -11 0 -1200
c0 -951 -3 -1200 -12 -1203 -101 -31 -140 -45 -235 -91 l-113 -54 0 -85 0 -86
520 0 520 0 0 86 0 85 -101 49 c-56 26 -137 59 -180 71 l-79 23 0 1148 c0 986
2 1148 14 1148 16 0 12 13 101 -284 48 -157 175 -502 452 -1220 212 -551 394
-1025 405 -1054 l20 -53 100 3 101 3 404 1055 c293 763 425 1120 476 1289 40
131 78 236 85 239 11 3 12 -16 8 -99 -3 -57 -8 -574 -12 -1150 l-6 -1045 -66
-17 c-37 -10 -112 -37 -167 -61 l-100 -43 -3 -86 -3 -87 636 0 635 0 0 89 0
89 -107 45 c-60 24 -129 50 -155 57 l-48 13 0 1212 0 1213 73 22 c39 11 111
40 160 62 l87 41 0 89 0 88 -525 0 c-489 0 -525 -1 -533 -17 -39 -73 -672
-1775 -717 -1928 -32 -104 -60 -194 -63 -199 -3 -5 -33 85 -68 200 -35 117
-203 589 -382 1074 l-320 865 -576 3 -576 2 0 -88z"/>
<path d="M1225 5004 c-269 -42 -484 -155 -598 -316 -103 -146 -132 -244 -131
-453 0 -160 11 -222 60 -332 80 -183 312 -387 604 -533 377 -189 544 -312 608
-448 24 -50 27 -69 26 -157 0 -79 -5 -112 -23 -157 -73 -187 -315 -300 -574
-268 -86 10 -205 59 -241 98 -9 11 -49 132 -87 268 -38 137 -76 273 -85 302
l-15 53 -86 -3 -87 -3 -8 -30 c-41 -151 -114 -582 -120 -709 l-3 -68 58 -30
c70 -36 253 -91 391 -117 237 -46 533 -52 746 -16 355 61 598 233 704 498 38
97 56 201 56 330 0 179 -31 286 -118 415 -122 179 -251 277 -647 492 -403 218
-540 349 -560 534 -19 177 66 310 235 368 111 38 299 31 457 -18 l52 -16 94
-282 94 -281 86 -3 c75 -2 86 -1 91 15 46 148 124 720 100 742 -20 20 -237 81
-354 100 -258 43 -547 53 -725 25z"/>
</g>
</svg>
