<svg width="512" height="512" viewBox="0 0 512 512" fill="none" xmlns="http://www.w3.org/2000/svg">
<rect width="512" height="512" fill="white"/>
<path d="M68.4759 332.657C70.6744 334.845 73.7722 336.934 77.7694 338.923C81.7666 340.713 87.0629 341.608 93.6583 341.608C104.651 341.608 113.744 338.823 120.939 333.254C128.334 327.486 132.031 319.53 132.031 309.387C132.031 302.028 129.633 295.862 124.836 290.89C120.24 285.917 114.344 281.343 107.149 277.166C99.9539 272.989 92.2592 268.912 84.065 264.934C75.8707 260.757 68.1761 255.884 60.9811 250.315C53.7862 244.746 47.7904 238.182 42.9937 230.624C38.3969 222.867 36.0985 213.32 36.0985 201.983C36.0985 192.238 37.8973 183.785 41.4948 176.624C45.0922 169.464 49.9888 163.597 56.1845 159.022C62.58 154.249 70.0748 150.768 78.6688 148.58C87.2627 146.193 96.5562 145 106.549 145C118.741 145 130.033 145.895 140.426 147.685C151.018 149.276 160.512 151.862 168.906 155.442C168.706 159.42 168.306 163.994 167.706 169.166C167.307 174.337 166.707 179.508 165.908 184.68C165.108 189.652 164.209 194.425 163.21 199C162.41 203.376 161.611 207.055 160.811 210.039H148.52L134.73 169.166C132.331 167.972 128.734 166.878 123.937 165.884C119.34 164.89 114.544 164.392 109.547 164.392C101.153 164.392 94.058 166.58 88.262 170.956C82.4661 175.331 79.5681 181.696 79.5681 190.05C79.5681 197.608 81.9665 204.072 86.7631 209.442C91.5597 214.613 97.5556 219.387 104.751 223.762C111.945 228.138 119.74 232.514 128.134 236.89C136.728 241.066 144.623 245.939 151.818 251.508C159.013 257.077 165.008 263.641 169.805 271.199C174.602 278.558 177 287.707 177 298.646C177 318.536 170.205 333.95 156.614 344.89C143.224 355.63 123.437 361 97.2558 361C90.8602 361 84.3648 360.602 77.7694 359.807C71.3739 359.011 65.2781 357.917 59.4822 356.525C53.6862 355.133 48.4899 353.641 43.8931 352.05C39.4962 350.459 36.1985 348.768 34 346.978C34.1999 342.403 34.6995 337.53 35.499 332.359C36.2984 326.989 37.0978 321.718 37.8973 316.547C38.8966 311.177 39.8959 306.105 40.8952 301.332C41.8945 296.558 42.8938 292.381 43.8931 288.801H56.1845L68.4759 332.657Z" fill="#333333"/>
<path d="M477.691 361H385.303V349.057C389.423 346.962 393.44 345.181 397.354 343.714C401.268 342.248 405.491 340.99 410.022 339.943V208.571L411.567 171.8H409.096L398.899 205.429L339.264 361H325.051L265.725 206.686L254.601 169.914H251.82L252.129 209.829V338.686C256.043 339.524 260.369 340.886 265.107 342.771C269.845 344.657 274.273 346.752 278.393 349.057V361H203V349.057C206.296 347.381 210.313 345.39 215.051 343.086C219.994 340.781 224.629 339.21 228.955 338.371V162.057C224.835 161.219 220.406 160.067 215.669 158.6C211.137 157.133 207.12 155.248 203.618 152.943V141H287.354L334.629 268.914L343.59 299.086H343.899L353.169 268.286L401.371 141H478V152.943C474.498 155.038 470.687 156.924 466.567 158.6C462.654 160.067 458.637 161.219 454.517 162.057V340.257C458.843 341.095 462.963 342.352 466.876 344.029C470.996 345.705 474.601 347.381 477.691 349.057V361Z" fill="#333333"/>
</svg>
