<svg width="550" height="62" fill="none" xmlns="http://www.w3.org/2000/svg"><path fill-rule="evenodd" clip-rule="evenodd" d="M5.994 42.282l3.321 11.907c.462.462 1.0707.8993 1.826 1.312.225.1228.4534.2392.685.349.4565.212.9346.3739 1.426.483.4647.1073.9703.1843 1.517.231a15.84 15.84 0 001.35.055 14.1681 14.1681 0 003.432-.396 10.5134 10.5134 0 003.98-1.912c1.9707-1.5393 2.956-3.686 2.956-6.44a7.7872 7.7872 0 00-.418-2.596 6.8013 6.8013 0 00-1.485-2.426 18.6204 18.6204 0 00-2.385-2.118 25.036 25.036 0 00-2.435-1.608 106.2592 106.2592 0 00-4.602-2.529 122.9556 122.9556 0 00-1.635-.832c-2.214-1.1073-4.293-2.417-6.237-3.929s-3.5503-3.3073-4.819-5.386a12.4643 12.4643 0 01-1.513-3.86c-.228-1.0407-.3563-2.16-.385-3.358a21.7874 21.7874 0 01-.006-.518 18.1786 18.1786 0 01.299-3.381 13.339 13.339 0 011.159-3.504c.972-1.944 2.3087-3.5503 4.01-4.819a16.597 16.597 0 014.048-2.197 20.4096 20.4096 0 011.986-.638 27.5252 27.5252 0 015.057-.841 33.0308 33.0308 0 012.476-.091 62.4526 62.4526 0 015.766.256 50.8355 50.8355 0 013.428.433 36.1193 36.1193 0 014.514 1.018 28.7498 28.7498 0 013.14 1.128c-.054 1.08-.1483 2.322-.283 3.726a70.6834 70.6834 0 01-.527 4.172c-.13.8304-.2703 1.6591-.421 2.486a85.482 85.482 0 01-.267 1.402c-.2407 1.2-.4677 2.2027-.681 3.008l-.008.029h-3.321L27.216 9.801a6.7094 6.7094 0 00-.697-.295c-.498-.182-1.1043-.3543-1.819-.517a25.7932 25.7932 0 00-.359-.079c-1.2693-.27-2.579-.405-3.929-.405a10.771 10.771 0 00-2.821.353 8.4475 8.4475 0 00-2.93 1.429 5.787 5.787 0 00-2.265 3.953 8.6508 8.6508 0 00-.084 1.231 8.081 8.081 0 00.501 2.886 7.3342 7.3342 0 001.443 2.339 19.7974 19.7974 0 002.651 2.42 25.5285 25.5285 0 002.209 1.508 84.903 84.903 0 003.851 2.212c.8295.4489 1.6653.8863 2.507 1.312 2.2953 1.1607 4.415 2.497 6.359 4.009 1.944 1.512 3.564 3.2807 4.86 5.306a11.96 11.96 0 011.617 4.076 16.9374 16.9374 0 01.327 3.416 19.1628 19.1628 0 01-.698 5.319 14.0245 14.0245 0 01-4.77 7.196c-2.7227 2.198-6.4023 3.5753-11.039 4.132a42.3807 42.3807 0 01-5.039.282c-1.728 0-3.4693-.108-5.224-.324a45.8901 45.8901 0 01-3.785-.622 39.8101 39.8101 0 01-1.197-.269c-1.5153-.366-2.8663-.757-4.053-1.173a25.076 25.076 0 01-.118-.042C1.4987 59.022.594 58.563 0 58.077a34.6669 34.6669 0 01.182-2.312 43.5263 43.5263 0 01.223-1.697 232.682 232.682 0 01.689-4.293c.1756-1.0379.3652-2.0733.569-3.106.065-.3287.1317-.657.2-.985.232-1.114.464-2.108.696-2.982.0372-.1402.0752-.2802.114-.42h3.321zM80.109 54.999l5.589.81v2.835c-.648.324-1.5253.648-2.632.972a77.9 77.9 0 01-2.582.706 87.2 87.2 0 01-.901.226c-1.2153.2967-2.417.5397-3.605.729a98.79 98.79 0 01-1.482.224 64.737 64.737 0 01-1.677.221h-2.754a12.3013 12.3013 0 01-.84-2.736 10.992 10.992 0 01-.132-.99 58.2682 58.2682 0 01-.11-1.511 85.6124 85.6124 0 01-.074-1.433 115.7925 115.7925 0 01-.059-1.592h-.405a10.1949 10.1949 0 01-1.2 2.836 11.9586 11.9586 0 01-.177.283 10.9115 10.9115 0 01-2.262 2.506 12.3473 12.3473 0 01-.208.167 11.8467 11.8467 0 01-2.31 1.404 14.411 14.411 0 01-1.214.499c-.8801.312-1.7931.522-2.721.626a15.548 15.548 0 01-1.815.103 15.469 15.469 0 01-3.259-.332 13.3188 13.3188 0 01-1.682-.478c-1.512-.54-2.835-1.296-3.969-2.268-1.134-.972-2.025-2.1463-2.673-3.523a10.2204 10.2204 0 01-.894-3.232 12.7226 12.7226 0 01-.078-1.426c0-1.954.2967-3.6287.89-5.024a8.468 8.468 0 01.487-.97 9.0363 9.0363 0 012.265-2.547 12.5534 12.5534 0 012.068-1.3 18.7825 18.7825 0 012.683-1.091c1.444-.4693 3.088-.8483 4.932-1.137a78.1654 78.1654 0 013.772-.49c1.4067-.15 2.9143-.2797 4.523-.389a158.537 158.537 0 013.004-.174c.0635-.677.1148-1.3551.154-2.034.206-3.6167-.0343-6.3407-.721-8.172a4.7958 4.7958 0 00-1.492-2.128c-.5907-.4693-1.3113-.79-2.162-.962a8.1182 8.1182 0 00-1.611-.15 13.5934 13.5934 0 00-2.981.316 11.65 11.65 0 00-1.636.494l-3.807 9.72h-3.564c-.432-.648-.8503-1.3903-1.255-2.227a29.8598 29.8598 0 01-.934-2.148 33.5362 33.5362 0 01-.2-.525 27.0423 27.0423 0 01-.891-2.876 23.2433 23.2433 0 01-.433-2.141 20.5335 20.5335 0 01-.094-.694c2.052-1.404 4.698-2.511 7.938-3.321a41.3078 41.3078 0 018.272-1.172 47.1736 47.1736 0 012.015-.043 34.6657 34.6657 0 012.973.12c1.764.152 3.284.4497 4.56.893a14.413 14.413 0 012.162.942c.9527.518 1.7577 1.122 2.415 1.812 1.1067 1.1607 1.876 2.524 2.308 4.09.432 1.566.648 3.24.648 5.022 0 3.24-.0673 6.1697-.202 8.789-.1353 2.6187-.203 5.305-.203 8.059 0 .4227.002.8453.006 1.268.006.6667.0176 1.27.035 1.81.0181.5618.0508 1.1229.098 1.683.0297.3575.0644.7145.104 1.071zM68.607 49.41v-8.1a67.7018 67.7018 0 00-2.455.094c-.7287.042-1.4084.0957-2.039.161a28.5356 28.5356 0 00-1.743.231c-1.1467.1913-2.1173.4703-2.912.837a6.3262 6.3262 0 00-.895.5 5.2853 5.2853 0 00-1.209 1.108 4.5717 4.5717 0 00-.695 1.241c-.3027.8153-.4747 1.782-.516 2.9-.0067.1806-.01.3613-.01.542-.004.6274.0486 1.254.157 1.872.1273.698.332 1.323.614 1.875.1873.37.4179.7164.687 1.032a4.766 4.766 0 003.007 1.625c.3452.0516.6939.077 1.043.076a7.4698 7.4698 0 001.384-.122 5.334 5.334 0 001.532-.526 8.6254 8.6254 0 001.376-.905 7.3398 7.3398 0 00.69-.634 6.6282 6.6282 0 001.047-1.428 6.0587 6.0587 0 00.249-.516c.2273-.5373.415-1.0273.563-1.47a13.089 13.089 0 00.125-.393zM135.027 57.753v3.159h-20.25v-3.159c.54-.324 1.148-.6613 1.823-1.012.483-.25.979-.4727 1.487-.667.245-.0939.491-.1823.74-.265V39.69c0-1.708-.032-3.237-.096-4.587a55.5999 55.5999 0 00-.107-1.731c-.097-1.244-.271-2.327-.522-3.249a10.0741 10.0741 0 00-.328-1.003 6.6597 6.6597 0 00-.553-1.118c-.259-.4153-.555-.7653-.886-1.05a3.7893 3.7893 0 00-.343-.262c-.756-.5133-1.728-.77-2.916-.77-1.728 0-3.226.6617-4.495 1.985a10.5499 10.5499 0 00-1.863 2.714 14.5735 14.5735 0 00-.932 2.51v22.68c1.458.432 2.808 1.08 4.05 1.944v3.159h-21.06v-3.159c.4881-.243.9859-.4662 1.492-.669a24.9822 24.9822 0 011.019-.384c.918-.324 1.863-.621 2.835-.891V26.163l-5.346-.648v-3.159c.6713-.294 1.4653-.5717 2.382-.833a30.712 30.712 0 01.818-.22c1.2687-.324 2.578-.6073 3.928-.85 1.35-.2433 2.6597-.446 3.929-.608l.913-.116c.874-.1113 1.635-.2077 2.282-.289h2.758v9.153h.081a14.1103 14.1103 0 014.551-6.459c.009-.007.017-.014.026-.021a11.8554 11.8554 0 016.833-2.636c.354-.0248.709-.0371 1.064-.037 1.296 0 2.565.135 3.807.405s2.39.7697 3.443 1.499c1.053.7287 1.957 1.741 2.713 3.037.344.5982.63 1.2277.855 1.88.223.6347.414 1.3273.571 2.078.073.353.138.7078.194 1.064a15.7482 15.7482 0 012.582-4.904 14.5254 14.5254 0 012.278-2.305 12.3154 12.3154 0 016.707-2.68 15.9942 15.9942 0 011.555-.074c.889-.0031 1.777.0534 2.658.169.9.117 1.786.3182 2.648.601 1.539.5127 2.835 1.417 3.888 2.713.867 1.068 1.561 2.448 2.08 4.14.114.3719.217.7471.309 1.125.216.903.38 1.8175.493 2.739.119.9353.204 1.9443.256 3.027.042.8854.062 1.7716.061 2.658v19.197c1.757.3166 3.452.9128 5.021 1.766.109.0583.217.1176.325.178v3.159h-21.06v-3.159c1.242-.81 2.592-1.458 4.05-1.944V38.232c0-4.212-.391-7.317-1.174-9.315a4.3561 4.3561 0 00-1.179-1.7528 4.363 4.363 0 00-1.863-.9942c-.559-.156-1.185-.239-1.877-.249a9.8751 9.8751 0 00-.144-.001 6.2436 6.2436 0 00-2.087.334 5.295 5.295 0 00-2.489 1.853c-.913 1.202-1.633 2.734-2.16 4.596-.115.4089-.219.8211-.311 1.236v21.87c.918.27 1.742.567 2.471.891a21.3535 21.3535 0 012.065 1.053zM257.256 57.834v3.078h-24.219v-3.078c1.08-.54 2.133-.999 3.159-1.377.733-.2684 1.477-.503 2.231-.703.362-.0965.725-.1861 1.09-.269V21.627l.405-9.477h-.648l-2.673 8.667-15.633 40.095h-3.726L201.69 21.141l-2.916-9.477h-.729l.081 10.287v33.21c.51.1089 1.015.24 1.514.393.524.1593 1.071.3477 1.642.565.082.0313.164.063.246.095.977.3807 1.934.8119 2.867 1.292.207.1067.412.216.616.328v3.078h-19.764v-3.078c.351-.1754.704-.3488 1.057-.52.318-.154.655-.316 1.012-.486.376-.1788.753-.3565 1.131-.533 1.269-.594 2.47-.999 3.604-1.215V9.639a31.4333 31.4333 0 01-2.05-.485 39.056 39.056 0 01-1.393-.406 14.3329 14.3329 0 01-1.906-.739 11.4153 11.4153 0 01-1.293-.719V4.212h21.951l12.393 32.967 2.349 7.776h.081l2.43-7.938 12.636-32.805h20.088V7.29c-.884.5177-1.807.966-2.76 1.341-.065.026-.131.0517-.196.077-1.053.4047-2.12.715-3.2.931v45.927c1.134.216 2.228.54 3.281.972.493.2019.982.4146 1.466.638.474.2193.917.4387 1.328.658zM294.597 52.65l1.296 1.701a7.8882 7.8882 0 01-1.513 2.575c-.113.1306-.23.2579-.35.382a13.3808 13.3808 0 01-2.031 1.703c-.353.2429-.716.4718-1.088.686-.868.4973-1.785.9054-2.735 1.218-.46.1528-.925.2869-1.396.402-1.539.378-3.145.567-4.819.567a31.9644 31.9644 0 01-4.244-.267c-1.817-.2433-3.466-.6537-4.949-1.231a17.4117 17.4117 0 01-4.193-2.308 15.2388 15.2388 0 01-2.166-1.985c-1.674-1.8633-2.916-4.1043-3.726-6.723a26.991 26.991 0 01-1.044-5.243 33.9796 33.9796 0 01-.171-3.465 29.9838 29.9838 0 01.606-6.232c.827-3.8993 2.502-7.0733 5.024-9.522 3.393-3.2967 8.079-5.1027 14.056-5.418a36.843 36.843 0 011.941-.05 32.3882 32.3882 0 014.26.269c1.021.1338 2.032.3282 3.03.582a35.487 35.487 0 012.331.677c.754.2493 1.451.513 2.09.791.368.1597.731.3318 1.087.516-.108.918-.256 1.9307-.445 3.038a72.1712 72.1712 0 01-.648 3.321 40.7145 40.7145 0 01-.851 3.24c-.114.3724-.235.7424-.364 1.11-.127.3593-.253.692-.38.998-.072.1762-.148.3509-.228.524h-3.969l-3.402-9.639c-.378-.27-.783-.4723-1.215-.607a3.4042 3.4042 0 00-.442-.103c-.394-.0667-.895-.1-1.502-.1a9.7267 9.7267 0 00-1.734.147 7.0677 7.0677 0 00-1.911.623 5.594 5.594 0 00-1.59 1.211c-.347.3727-.669.8043-.967 1.295-.025.0418-.05.0838-.075.126a10.5625 10.5625 0 00-.782 1.677c-.215.5813-.403 1.2183-.566 1.911-.104.4481-.195.8993-.272 1.353-.14.8335-.247 1.6721-.321 2.514-.081.8967-.139 1.8603-.172 2.891a70.7305 70.7305 0 00-.034 2.209 26.638 26.638 0 00.231 3.57c.115.8579.281 1.7081.498 2.546.267 1.044.642 2.0574 1.118 3.024.319.6416.69 1.2557 1.11 1.836.999 1.3767 2.254 2.4567 3.766 3.24 1.512.7827 3.294 1.174 5.346 1.174 1.89 0 3.537-.27 4.941-.81a16.267 16.267 0 001.888-.861 12.0225 12.0225 0 001.676-1.083zM324.243 23.571v-3.159h18.954v3.159c-1.026.432-1.984.81-2.875 1.134-.554.2-1.117.3736-1.688.52-.42.1085-.843.2052-1.269.29-.81 1.08-1.687 2.1467-2.632 3.2-.945 1.0527-1.89 2.065-2.835 3.037-.945.972-1.85 1.9037-2.714 2.795-.398.4106-.797.82-1.198 1.228-.38.386-.741.7503-1.083 1.093-.023.0227-.045.0453-.068.068.325.4336.648.869.968 1.306.285.388.583.7973.894 1.228.326.4504.65.9017.973 1.354 1.08 1.512 2.241 3.1187 3.483 4.82a186.3304 186.3304 0 003.671 4.855c.086.1098.171.2194.257.329a99.4576 99.4576 0 004.172 4.981l4.131 1.944v3.159h-13.689l-2.187-1.944c-1.242-1.674-2.335-3.24-3.28-4.698a82.0775 82.0775 0 01-1.662-2.67c-.303-.5101-.6-1.0242-.89-1.542a899.9712 899.9712 0 01-1.922-3.451c-.088-.159-.177-.318-.265-.477a466.0316 466.0316 0 00-2.106-3.767l-2.673-.81v14.256c.55.0957 1.094.229 1.626.399.3.0962.595.2063.885.33.397.1708.788.3532 1.174.547.424.2124.843.4352 1.256.668v3.159H299.7v-3.159a27.2104 27.2104 0 014.302-1.666c.346-.1003.694-.193 1.044-.278V6.723l-6.156-.648V2.916c.756-.324 1.782-.648 3.078-.972a50.8041 50.8041 0 012.92-.636c.403-.0755.807-.1469 1.211-.214 1.458-.2433 2.889-.4593 4.293-.648.496-.067.992-.1323 1.488-.196.389-.0493.756-.095 1.101-.137.325-.0392.65-.0768.975-.113h2.754v37.989h2.106a49.9683 49.9683 0 004.945-6.184c.012-.0177.025-.0353.037-.053a250.867 250.867 0 002.176-3.26c.648-.9862 1.286-1.9785 1.914-2.977a10.071 10.071 0 01-1.237-.468 8.4814 8.4814 0 01-.667-.342 17.8084 17.8084 0 01-1.078-.671 21.1194 21.1194 0 01-.663-.463zM381.996 52.488l1.539 1.62c-.432.918-1.12 1.8497-2.065 2.795a13.1984 13.1984 0 01-1.997 1.626c-.48.3204-.976.6158-1.487.885-.813.4269-1.657.7945-2.523 1.1-.741.2625-1.493.4901-2.255.682a22.5073 22.5073 0 01-3.942.621 27.175 27.175 0 01-1.931.067 28.7072 28.7072 0 01-4.599-.352 21.5474 21.5474 0 01-4.311-1.146 17.992 17.992 0 01-4.354-2.38 15.9114 15.9114 0 01-2.126-1.913 18.2627 18.2627 0 01-3.575-5.728 21.5845 21.5845 0 01-.353-.955 24.2208 24.2208 0 01-1.116-4.96 31.3435 31.3435 0 01-.221-3.788c-.014-2.0583.172-4.113.557-6.135.787-3.9807 2.411-7.2007 4.87-9.66a17.859 17.859 0 018.555-4.695c1.981-.488 4.152-.732 6.511-.732 2.754 0 5.333.378 7.736 1.134a14.02 14.02 0 014.207 2.116c.644.48 1.243 1.019 1.787 1.61 1.593 1.728 2.7 3.996 3.321 6.804.619 2.802.58 6.2227-.118 10.262-.001.0083-.003.0167-.004.025h-24.867c.008 1.4336.163 2.8627.461 4.265.385 1.7507 1.01 3.3023 1.875 4.655.287.4487.602.8783.945 1.286a10.2743 10.2743 0 005.588 3.377c1.132.278 2.371.4213 3.717.43h.131a19.4955 19.4955 0 003.947-.418 23.3145 23.3145 0 001.601-.392c.62-.1723 1.231-.3773 1.829-.614 1.069-.4273 1.958-.9247 2.667-1.492zm-22.518-15.309h13.041a44.228 44.228 0 00.129-1.855c.126-2.6113-.024-4.7907-.45-6.538a11.171 11.171 0 00-.408-1.327 5.939 5.939 0 00-1.035-1.789c-.764-.882-1.777-1.4023-3.04-1.561a6.9652 6.9652 0 00-.866-.052 7.894 7.894 0 00-1.529.142 6.1444 6.1444 0 00-1.346.425c-.837.378-1.566 1.0667-2.187 2.066a9.0332 9.0332 0 00-.648 1.271c-.186.444-.357.9313-.514 1.462-.127.4351-.24.8743-.337 1.317a28.6668 28.6668 0 00-.376 2.077c-.187 1.278-.332 2.732-.434 4.362zM438.858 57.753v3.159h-21.465v-3.159c.702-.378 1.391-.7153 2.066-1.012.675-.2973 1.471-.608 2.389-.932V36.774a28.9184 28.9184 0 00-.142-2.972c-.209-2.02-.648-3.6887-1.316-5.006a4.9468 4.9468 0 00-1.445-1.778 4.9435 4.9435 0 00-2.092-.935 7.8314 7.8314 0 00-1.647-.163c-2.052 0-3.82.6617-5.305 1.985a10.9484 10.9484 0 00-2.334 2.989 14.9037 14.9037 0 00-1.028 2.397v22.518c.864.216 1.634.4727 2.309.77.675.2967 1.39.688 2.146 1.174v3.159h-21.465v-3.159c1.35-.702 3.132-1.35 5.346-1.944V26.163l-5.346-.648v-3.159c.276-.1259.556-.2407.841-.344.274-.1007.571-.2.89-.298.339-.1034.68-.1998 1.023-.289 1.134-.2973 2.363-.581 3.686-.851s2.673-.4993 4.05-.688c1.377-.1893 2.632-.338 3.766-.446h2.754v8.343h.081a15.693 15.693 0 013.839-4.872c.407-.351.829-.6846 1.264-1a12.8312 12.8312 0 015.713-2.286 17.018 17.018 0 012.549-.185c2.106 0 3.996.2567 5.67.77 1.674.5127 3.092 1.417 4.253 2.713 1.049 1.1713 1.877 2.7067 2.486 4.606.066.2053.128.4116.187.619.451 1.5887.738 3.484.861 5.686.048.8712.071 1.7435.07 2.616v19.359a18.164 18.164 0 012.445.594c1.101.3547 2.068.8047 2.901 1.35zM473.769 45.927h2.754c.594 2.214 1.107 4.671 1.539 7.371a41.556 41.556 0 01.457 4.119c.071 1.2013.08 2.3663.029 3.495h-36.126v-3.159l23.085-32.724h-13.446l-3.564 9.558h-2.754a68.9155 68.9155 0 01-1.154-5.452 77.7058 77.7058 0 01-.304-1.919c-.289-1.9847-.468-3.7793-.536-5.384-.02-.4731-.031-.9465-.031-1.42h34.83v3.159l-23.166 32.724h14.013l4.374-10.368zM506.493 57.753v3.159h-22.356v-3.159a17.196 17.196 0 012.511-1.093 36.773 36.773 0 011.625-.515c.402-.1175.805-.2295 1.21-.336V26.163l-5.346-.648v-3.159c.329-.1305.661-.2519.997-.364.601-.2027 1.281-.4053 2.041-.608a46.3007 46.3007 0 012.847-.661c.333-.0662.666-.1292 1-.189 1.35-.2433 2.673-.4593 3.969-.648.463-.0678.926-.1331 1.39-.196.367-.0493.718-.095 1.053-.137.319-.0397.639-.0774.959-.113h2.754v36.369c1.08.27 2.052.5537 2.916.851.864.2967 1.674.661 2.43 1.093zm-18.114-52.58a6.634 6.634 0 00-.273 1.955c0 .1688.005.3376.017.506a5.2939 5.2939 0 001.927 3.868 6.7598 6.7598 0 002.801 1.375 9.552 9.552 0 002.221.245 9.7389 9.7389 0 002.003-.196 6.8178 6.8178 0 003.019-1.424 5.182 5.182 0 001.635-2.359c.212-.6504.316-1.331.309-2.015 0-.2652-.013-.5302-.041-.794a5.3093 5.3093 0 00-.58-2.0234 5.3004 5.3004 0 00-1.323-1.6376 6.7587 6.7587 0 00-2.801-1.375 9.5547 9.5547 0 00-2.221-.245 9.743 9.743 0 00-2.003.196 6.818 6.818 0 00-3.019 1.424 5.1562 5.1562 0 00-1.671 2.5zM546.345 52.488l1.539 1.62c-.432.918-1.12 1.8497-2.065 2.795a13.1984 13.1984 0 01-1.997 1.626c-.48.3204-.976.6158-1.487.885-.813.4269-1.657.7945-2.523 1.1-.741.2625-1.493.4901-2.255.682a22.5073 22.5073 0 01-3.942.621 27.175 27.175 0 01-1.931.067 28.7072 28.7072 0 01-4.599-.352 21.5474 21.5474 0 01-4.311-1.146 17.992 17.992 0 01-4.354-2.38 15.9114 15.9114 0 01-2.126-1.913 18.2627 18.2627 0 01-3.575-5.728 21.5845 21.5845 0 01-.353-.955 24.2208 24.2208 0 01-1.116-4.96 31.3435 31.3435 0 01-.221-3.788c-.014-2.0583.172-4.113.557-6.135.787-3.9807 2.411-7.2007 4.87-9.66a17.859 17.859 0 018.555-4.695c1.981-.488 4.152-.732 6.511-.732 2.754 0 5.333.378 7.736 1.134a14.02 14.02 0 014.207 2.116c.644.48 1.243 1.019 1.787 1.61 1.593 1.728 2.7 3.996 3.321 6.804.619 2.802.58 6.2227-.118 10.262-.001.0083-.003.0167-.004.025h-24.867c.008 1.4336.163 2.8627.461 4.265.385 1.7507 1.01 3.3023 1.875 4.655.287.4487.602.8783.945 1.286a10.2743 10.2743 0 005.588 3.377c1.132.278 2.371.4213 3.717.43h.131a19.4955 19.4955 0 003.947-.418 23.3145 23.3145 0 001.601-.392c.62-.1723 1.231-.3773 1.829-.614 1.069-.4273 1.958-.9247 2.667-1.492zm-22.518-15.309h13.041a44.228 44.228 0 00.129-1.855c.126-2.6113-.024-4.7907-.45-6.538a11.171 11.171 0 00-.408-1.327 5.939 5.939 0 00-1.035-1.789c-.764-.882-1.777-1.4023-3.04-1.561a6.9652 6.9652 0 00-.866-.052 7.894 7.894 0 00-1.529.142 6.1444 6.1444 0 00-1.346.425c-.837.378-1.566 1.0667-2.187 2.066a9.0332 9.0332 0 00-.648 1.271c-.186.444-.357.9313-.514 1.462-.127.4351-.24.8743-.337 1.317-.15.6875-.276 1.3803-.376 2.077-.187 1.278-.332 2.732-.434 4.362z" fill="#323030"/></svg>